<mxfile host="app.diagrams.net" modified="2021-10-01T06:54:13.085Z" agent="5.0 (Windows NT 10.0; Win64; x64) AppleWebKit/537.36 (KHTML, like Gecko) Chrome/94.0.4606.61 Safari/537.36" etag="OSw_2K83fKiBYu-47VUy" version="15.3.8" type="github">
  <diagram id="QfopO4gX7UbSlNm4MT2A" name="Page-1">
    <mxGraphModel dx="1038" dy="579" grid="1" gridSize="10" guides="1" tooltips="1" connect="1" arrows="1" fold="1" page="1" pageScale="1" pageWidth="850" pageHeight="1100" math="0" shadow="0">
      <root>
        <mxCell id="0" />
        <mxCell id="1" parent="0" />
        <mxCell id="AEVoycykXjOXG9yBRWcZ-2" value="" style="swimlane;startSize=0;" vertex="1" parent="1">
          <mxGeometry x="190" y="50" width="490" height="940" as="geometry" />
        </mxCell>
        <mxCell id="AEVoycykXjOXG9yBRWcZ-4" value="Login" style="ellipse;whiteSpace=wrap;html=1;" vertex="1" parent="AEVoycykXjOXG9yBRWcZ-2">
          <mxGeometry x="360" y="270" width="120" height="50" as="geometry" />
        </mxCell>
        <mxCell id="AEVoycykXjOXG9yBRWcZ-5" value="Olah Data Supplier" style="ellipse;whiteSpace=wrap;html=1;" vertex="1" parent="AEVoycykXjOXG9yBRWcZ-2">
          <mxGeometry x="185" y="90" width="120" height="50" as="geometry" />
        </mxCell>
        <mxCell id="AEVoycykXjOXG9yBRWcZ-6" value="Olah Data Produk" style="ellipse;whiteSpace=wrap;html=1;" vertex="1" parent="AEVoycykXjOXG9yBRWcZ-2">
          <mxGeometry x="185" y="150" width="120" height="50" as="geometry" />
        </mxCell>
        <mxCell id="AEVoycykXjOXG9yBRWcZ-7" value="Olah Data Merchant" style="ellipse;whiteSpace=wrap;html=1;" vertex="1" parent="AEVoycykXjOXG9yBRWcZ-2">
          <mxGeometry x="185" y="210" width="120" height="50" as="geometry" />
        </mxCell>
        <mxCell id="AEVoycykXjOXG9yBRWcZ-8" value="Olah Data Outlet&lt;span style=&quot;color: rgba(0 , 0 , 0 , 0) ; font-family: monospace ; font-size: 0px&quot;&gt;%3CmxGraphModel%3E%3Croot%3E%3CmxCell%20id%3D%220%22%2F%3E%3CmxCell%20id%3D%221%22%20parent%3D%220%22%2F%3E%3CmxCell%20id%3D%222%22%20value%3D%22Olah%20Data%20Merchant%22%20style%3D%22ellipse%3BwhiteSpace%3Dwrap%3Bhtml%3D1%3B%22%20vertex%3D%221%22%20parent%3D%221%22%3E%3CmxGeometry%20x%3D%22375%22%20y%3D%22260%22%20width%3D%22120%22%20height%3D%2250%22%20as%3D%22geometry%22%2F%3E%3C%2FmxCell%3E%3C%2Froot%3E%3C%2FmxGraphModel%3E&lt;/span&gt;" style="ellipse;whiteSpace=wrap;html=1;" vertex="1" parent="AEVoycykXjOXG9yBRWcZ-2">
          <mxGeometry x="185" y="270" width="120" height="50" as="geometry" />
        </mxCell>
        <mxCell id="AEVoycykXjOXG9yBRWcZ-9" value="Olah Data Customer&lt;span style=&quot;color: rgba(0 , 0 , 0 , 0) ; font-family: monospace ; font-size: 0px&quot;&gt;%3CmxGraphModel%3E%3Croot%3E%3CmxCell%20id%3D%220%22%2F%3E%3CmxCell%20id%3D%221%22%20parent%3D%220%22%2F%3E%3CmxCell%20id%3D%222%22%20value%3D%22Olah%20Data%20Merchant%22%20style%3D%22ellipse%3BwhiteSpace%3Dwrap%3Bhtml%3D1%3B%22%20vertex%3D%221%22%20parent%3D%221%22%3E%3CmxGeometry%20x%3D%22375%22%20y%3D%22260%22%20width%3D%22120%22%20height%3D%2250%22%20as%3D%22geometry%22%2F%3E%3C%2FmxCell%3E%3C%2Froot%3E%3C%2FmxGraphModel%3E&lt;/span&gt;" style="ellipse;whiteSpace=wrap;html=1;" vertex="1" parent="AEVoycykXjOXG9yBRWcZ-2">
          <mxGeometry x="185" y="330" width="120" height="50" as="geometry" />
        </mxCell>
        <mxCell id="AEVoycykXjOXG9yBRWcZ-10" value="Report Pembelian" style="ellipse;whiteSpace=wrap;html=1;" vertex="1" parent="AEVoycykXjOXG9yBRWcZ-2">
          <mxGeometry x="185" y="390" width="120" height="50" as="geometry" />
        </mxCell>
        <mxCell id="AEVoycykXjOXG9yBRWcZ-11" value="Transaksi Pembelian" style="ellipse;whiteSpace=wrap;html=1;" vertex="1" parent="AEVoycykXjOXG9yBRWcZ-2">
          <mxGeometry x="185" y="450" width="120" height="50" as="geometry" />
        </mxCell>
        <mxCell id="AEVoycykXjOXG9yBRWcZ-12" value="Transaksi Penjualan&lt;span style=&quot;color: rgba(0 , 0 , 0 , 0) ; font-family: monospace ; font-size: 0px&quot;&gt;%3CmxGraphModel%3E%3Croot%3E%3CmxCell%20id%3D%220%22%2F%3E%3CmxCell%20id%3D%221%22%20parent%3D%220%22%2F%3E%3CmxCell%20id%3D%222%22%20value%3D%22Transaksi%20Pembelian%22%20style%3D%22ellipse%3BwhiteSpace%3Dwrap%3Bhtml%3D1%3B%22%20vertex%3D%221%22%20parent%3D%221%22%3E%3CmxGeometry%20x%3D%22375%22%20y%3D%22500%22%20width%3D%22120%22%20height%3D%2250%22%20as%3D%22geometry%22%2F%3E%3C%2FmxCell%3E%3C%2Froot%3E%3C%2FmxGraphModel%3E&lt;/span&gt;" style="ellipse;whiteSpace=wrap;html=1;" vertex="1" parent="AEVoycykXjOXG9yBRWcZ-2">
          <mxGeometry x="185" y="510" width="120" height="50" as="geometry" />
        </mxCell>
        <mxCell id="AEVoycykXjOXG9yBRWcZ-13" value="Report Penjualan&lt;span style=&quot;color: rgba(0 , 0 , 0 , 0) ; font-family: monospace ; font-size: 0px&quot;&gt;%3CmxGraphModel%3E%3Croot%3E%3CmxCell%20id%3D%220%22%2F%3E%3CmxCell%20id%3D%221%22%20parent%3D%220%22%2F%3E%3CmxCell%20id%3D%222%22%20value%3D%22Transaksi%20Pembelian%22%20style%3D%22ellipse%3BwhiteSpace%3Dwrap%3Bhtml%3D1%3B%22%20vertex%3D%221%22%20parent%3D%221%22%3E%3CmxGeometry%20x%3D%22375%22%20y%3D%22500%22%20width%3D%22120%22%20height%3D%2250%22%20as%3D%22geometry%22%2F%3E%3C%2FmxCell%3E%3C%2Froot%3E%3C%2FmxGraphModel%3E&lt;/span&gt;" style="ellipse;whiteSpace=wrap;html=1;" vertex="1" parent="AEVoycykXjOXG9yBRWcZ-2">
          <mxGeometry x="185" y="570" width="120" height="50" as="geometry" />
        </mxCell>
        <mxCell id="AEVoycykXjOXG9yBRWcZ-16" value="List Produk" style="ellipse;whiteSpace=wrap;html=1;" vertex="1" parent="AEVoycykXjOXG9yBRWcZ-2">
          <mxGeometry x="185" y="640" width="120" height="50" as="geometry" />
        </mxCell>
        <mxCell id="AEVoycykXjOXG9yBRWcZ-33" value="List Produk" style="ellipse;whiteSpace=wrap;html=1;" vertex="1" parent="AEVoycykXjOXG9yBRWcZ-2">
          <mxGeometry x="20" y="680" width="120" height="50" as="geometry" />
        </mxCell>
        <mxCell id="AEVoycykXjOXG9yBRWcZ-35" value="" style="endArrow=classic;html=1;exitX=1;exitY=0.5;exitDx=0;exitDy=0;dashed=1;entryX=0;entryY=0.5;entryDx=0;entryDy=0;" edge="1" parent="AEVoycykXjOXG9yBRWcZ-2" source="AEVoycykXjOXG9yBRWcZ-33" target="AEVoycykXjOXG9yBRWcZ-16">
          <mxGeometry width="50" height="50" relative="1" as="geometry">
            <mxPoint x="260" y="420" as="sourcePoint" />
            <mxPoint x="310" y="370" as="targetPoint" />
          </mxGeometry>
        </mxCell>
        <mxCell id="AEVoycykXjOXG9yBRWcZ-36" value="extend" style="text;html=1;strokeColor=none;fillColor=none;align=center;verticalAlign=middle;whiteSpace=wrap;rounded=0;" vertex="1" parent="AEVoycykXjOXG9yBRWcZ-2">
          <mxGeometry x="120" y="655" width="40" height="20" as="geometry" />
        </mxCell>
        <mxCell id="AEVoycykXjOXG9yBRWcZ-39" value="" style="endArrow=classic;html=1;dashed=1;exitX=1;exitY=0.5;exitDx=0;exitDy=0;entryX=0;entryY=0;entryDx=0;entryDy=0;" edge="1" parent="AEVoycykXjOXG9yBRWcZ-2" source="AEVoycykXjOXG9yBRWcZ-5" target="AEVoycykXjOXG9yBRWcZ-4">
          <mxGeometry width="50" height="50" relative="1" as="geometry">
            <mxPoint x="260" y="420" as="sourcePoint" />
            <mxPoint x="360" y="240" as="targetPoint" />
          </mxGeometry>
        </mxCell>
        <mxCell id="AEVoycykXjOXG9yBRWcZ-40" value="" style="endArrow=classic;html=1;dashed=1;exitX=1;exitY=0.5;exitDx=0;exitDy=0;" edge="1" parent="AEVoycykXjOXG9yBRWcZ-2" source="AEVoycykXjOXG9yBRWcZ-6">
          <mxGeometry width="50" height="50" relative="1" as="geometry">
            <mxPoint x="315" y="180" as="sourcePoint" />
            <mxPoint x="380" y="280" as="targetPoint" />
          </mxGeometry>
        </mxCell>
        <mxCell id="AEVoycykXjOXG9yBRWcZ-45" value="" style="endArrow=classic;html=1;dashed=1;exitX=1;exitY=0.5;exitDx=0;exitDy=0;entryX=0;entryY=0.5;entryDx=0;entryDy=0;" edge="1" parent="AEVoycykXjOXG9yBRWcZ-2" source="AEVoycykXjOXG9yBRWcZ-11" target="AEVoycykXjOXG9yBRWcZ-4">
          <mxGeometry width="50" height="50" relative="1" as="geometry">
            <mxPoint x="315" y="425" as="sourcePoint" />
            <mxPoint x="380" y="320" as="targetPoint" />
          </mxGeometry>
        </mxCell>
        <mxCell id="AEVoycykXjOXG9yBRWcZ-47" value="" style="endArrow=classic;html=1;dashed=1;exitX=1;exitY=0.5;exitDx=0;exitDy=0;entryX=0.5;entryY=1;entryDx=0;entryDy=0;" edge="1" parent="AEVoycykXjOXG9yBRWcZ-2" source="AEVoycykXjOXG9yBRWcZ-13" target="AEVoycykXjOXG9yBRWcZ-4">
          <mxGeometry width="50" height="50" relative="1" as="geometry">
            <mxPoint x="315" y="545" as="sourcePoint" />
            <mxPoint x="370" y="310" as="targetPoint" />
          </mxGeometry>
        </mxCell>
        <mxCell id="AEVoycykXjOXG9yBRWcZ-49" value="include" style="text;html=1;strokeColor=none;fillColor=none;align=center;verticalAlign=middle;whiteSpace=wrap;rounded=0;" vertex="1" parent="AEVoycykXjOXG9yBRWcZ-2">
          <mxGeometry x="360" y="320" width="40" height="20" as="geometry" />
        </mxCell>
        <mxCell id="AEVoycykXjOXG9yBRWcZ-3" value="User Admin&lt;br&gt;" style="shape=umlActor;verticalLabelPosition=bottom;verticalAlign=top;html=1;outlineConnect=0;" vertex="1" parent="1">
          <mxGeometry x="60" y="210" width="30" height="60" as="geometry" />
        </mxCell>
        <mxCell id="AEVoycykXjOXG9yBRWcZ-14" value="User Outlet&lt;br&gt;" style="shape=umlActor;verticalLabelPosition=bottom;verticalAlign=top;html=1;outlineConnect=0;" vertex="1" parent="1">
          <mxGeometry x="760" y="500" width="30" height="60" as="geometry" />
        </mxCell>
        <mxCell id="AEVoycykXjOXG9yBRWcZ-17" value="User&amp;nbsp; Merchant&lt;br&gt;" style="shape=umlActor;verticalLabelPosition=bottom;verticalAlign=top;html=1;outlineConnect=0;" vertex="1" parent="1">
          <mxGeometry x="60" y="370" width="30" height="60" as="geometry" />
        </mxCell>
        <mxCell id="AEVoycykXjOXG9yBRWcZ-19" value="" style="endArrow=classic;html=1;entryX=0;entryY=0.5;entryDx=0;entryDy=0;" edge="1" parent="1" target="AEVoycykXjOXG9yBRWcZ-5">
          <mxGeometry width="50" height="50" relative="1" as="geometry">
            <mxPoint x="90" y="230" as="sourcePoint" />
            <mxPoint x="385" y="115" as="targetPoint" />
          </mxGeometry>
        </mxCell>
        <mxCell id="AEVoycykXjOXG9yBRWcZ-20" value="" style="endArrow=classic;html=1;entryX=0;entryY=0.5;entryDx=0;entryDy=0;exitX=1;exitY=0.3333333333333333;exitDx=0;exitDy=0;exitPerimeter=0;" edge="1" parent="1" source="AEVoycykXjOXG9yBRWcZ-3" target="AEVoycykXjOXG9yBRWcZ-6">
          <mxGeometry width="50" height="50" relative="1" as="geometry">
            <mxPoint x="100" y="240" as="sourcePoint" />
            <mxPoint x="385" y="175" as="targetPoint" />
          </mxGeometry>
        </mxCell>
        <mxCell id="AEVoycykXjOXG9yBRWcZ-21" value="" style="endArrow=classic;html=1;entryX=0;entryY=0.5;entryDx=0;entryDy=0;" edge="1" parent="1" target="AEVoycykXjOXG9yBRWcZ-7">
          <mxGeometry width="50" height="50" relative="1" as="geometry">
            <mxPoint x="100" y="230" as="sourcePoint" />
            <mxPoint x="385" y="235" as="targetPoint" />
          </mxGeometry>
        </mxCell>
        <mxCell id="AEVoycykXjOXG9yBRWcZ-22" value="" style="endArrow=classic;html=1;entryX=0;entryY=0.5;entryDx=0;entryDy=0;" edge="1" parent="1" target="AEVoycykXjOXG9yBRWcZ-8">
          <mxGeometry width="50" height="50" relative="1" as="geometry">
            <mxPoint x="100" y="230" as="sourcePoint" />
            <mxPoint x="385" y="295" as="targetPoint" />
          </mxGeometry>
        </mxCell>
        <mxCell id="AEVoycykXjOXG9yBRWcZ-23" value="" style="endArrow=classic;html=1;entryX=0;entryY=0.5;entryDx=0;entryDy=0;" edge="1" parent="1" target="AEVoycykXjOXG9yBRWcZ-9">
          <mxGeometry width="50" height="50" relative="1" as="geometry">
            <mxPoint x="100" y="230" as="sourcePoint" />
            <mxPoint x="385" y="355" as="targetPoint" />
          </mxGeometry>
        </mxCell>
        <mxCell id="AEVoycykXjOXG9yBRWcZ-24" value="" style="endArrow=classic;html=1;entryX=0;entryY=0.5;entryDx=0;entryDy=0;exitX=1;exitY=0.3333333333333333;exitDx=0;exitDy=0;exitPerimeter=0;" edge="1" parent="1" source="AEVoycykXjOXG9yBRWcZ-17" target="AEVoycykXjOXG9yBRWcZ-11">
          <mxGeometry width="50" height="50" relative="1" as="geometry">
            <mxPoint x="110" y="240" as="sourcePoint" />
            <mxPoint x="385" y="415" as="targetPoint" />
          </mxGeometry>
        </mxCell>
        <mxCell id="AEVoycykXjOXG9yBRWcZ-25" value="" style="endArrow=classic;html=1;entryX=0;entryY=0.5;entryDx=0;entryDy=0;" edge="1" parent="1" target="AEVoycykXjOXG9yBRWcZ-12">
          <mxGeometry width="50" height="50" relative="1" as="geometry">
            <mxPoint x="90" y="390" as="sourcePoint" />
            <mxPoint x="385" y="535" as="targetPoint" />
          </mxGeometry>
        </mxCell>
        <mxCell id="AEVoycykXjOXG9yBRWcZ-27" value="" style="endArrow=classic;html=1;entryX=0;entryY=0.5;entryDx=0;entryDy=0;exitX=1;exitY=0.3333333333333333;exitDx=0;exitDy=0;exitPerimeter=0;" edge="1" parent="1" source="AEVoycykXjOXG9yBRWcZ-17" target="AEVoycykXjOXG9yBRWcZ-13">
          <mxGeometry width="50" height="50" relative="1" as="geometry">
            <mxPoint x="100" y="400" as="sourcePoint" />
            <mxPoint x="385" y="595" as="targetPoint" />
          </mxGeometry>
        </mxCell>
        <mxCell id="AEVoycykXjOXG9yBRWcZ-28" value="" style="endArrow=classic;html=1;exitX=0;exitY=0.3333333333333333;exitDx=0;exitDy=0;exitPerimeter=0;" edge="1" parent="1" source="AEVoycykXjOXG9yBRWcZ-14">
          <mxGeometry width="50" height="50" relative="1" as="geometry">
            <mxPoint x="100" y="400" as="sourcePoint" />
            <mxPoint x="490" y="530" as="targetPoint" />
          </mxGeometry>
        </mxCell>
        <mxCell id="AEVoycykXjOXG9yBRWcZ-29" value="" style="endArrow=classic;html=1;entryX=1;entryY=0.5;entryDx=0;entryDy=0;exitX=0;exitY=0.3333333333333333;exitDx=0;exitDy=0;exitPerimeter=0;" edge="1" parent="1" source="AEVoycykXjOXG9yBRWcZ-14" target="AEVoycykXjOXG9yBRWcZ-12">
          <mxGeometry width="50" height="50" relative="1" as="geometry">
            <mxPoint x="760" y="250" as="sourcePoint" />
            <mxPoint x="500" y="540" as="targetPoint" />
          </mxGeometry>
        </mxCell>
        <mxCell id="AEVoycykXjOXG9yBRWcZ-30" value="" style="endArrow=classic;html=1;entryX=1;entryY=0.5;entryDx=0;entryDy=0;exitX=0;exitY=0.3333333333333333;exitDx=0;exitDy=0;exitPerimeter=0;" edge="1" parent="1" source="AEVoycykXjOXG9yBRWcZ-14" target="AEVoycykXjOXG9yBRWcZ-13">
          <mxGeometry width="50" height="50" relative="1" as="geometry">
            <mxPoint x="760" y="250" as="sourcePoint" />
            <mxPoint x="505" y="595" as="targetPoint" />
          </mxGeometry>
        </mxCell>
        <mxCell id="AEVoycykXjOXG9yBRWcZ-31" value="" style="endArrow=classic;html=1;entryX=0;entryY=0.5;entryDx=0;entryDy=0;exitX=1;exitY=0.3333333333333333;exitDx=0;exitDy=0;exitPerimeter=0;" edge="1" parent="1" source="AEVoycykXjOXG9yBRWcZ-17" target="AEVoycykXjOXG9yBRWcZ-10">
          <mxGeometry width="50" height="50" relative="1" as="geometry">
            <mxPoint x="100" y="400" as="sourcePoint" />
            <mxPoint x="385" y="535" as="targetPoint" />
          </mxGeometry>
        </mxCell>
        <mxCell id="AEVoycykXjOXG9yBRWcZ-32" value="" style="endArrow=classic;html=1;entryX=1;entryY=0.5;entryDx=0;entryDy=0;exitX=0;exitY=0.3333333333333333;exitDx=0;exitDy=0;exitPerimeter=0;" edge="1" parent="1" source="AEVoycykXjOXG9yBRWcZ-14" target="AEVoycykXjOXG9yBRWcZ-16">
          <mxGeometry width="50" height="50" relative="1" as="geometry">
            <mxPoint x="760" y="250" as="sourcePoint" />
            <mxPoint x="505" y="655" as="targetPoint" />
          </mxGeometry>
        </mxCell>
        <mxCell id="AEVoycykXjOXG9yBRWcZ-41" value="" style="endArrow=classic;html=1;dashed=1;exitX=1;exitY=0.5;exitDx=0;exitDy=0;" edge="1" parent="1" source="AEVoycykXjOXG9yBRWcZ-7">
          <mxGeometry width="50" height="50" relative="1" as="geometry">
            <mxPoint x="505" y="235" as="sourcePoint" />
            <mxPoint x="570" y="330" as="targetPoint" />
          </mxGeometry>
        </mxCell>
        <mxCell id="AEVoycykXjOXG9yBRWcZ-42" value="" style="endArrow=classic;html=1;dashed=1;exitX=1;exitY=0.5;exitDx=0;exitDy=0;" edge="1" parent="1" source="AEVoycykXjOXG9yBRWcZ-8">
          <mxGeometry width="50" height="50" relative="1" as="geometry">
            <mxPoint x="505" y="295" as="sourcePoint" />
            <mxPoint x="550" y="345" as="targetPoint" />
          </mxGeometry>
        </mxCell>
        <mxCell id="AEVoycykXjOXG9yBRWcZ-43" value="" style="endArrow=classic;html=1;dashed=1;exitX=1;exitY=0.5;exitDx=0;exitDy=0;" edge="1" parent="1" source="AEVoycykXjOXG9yBRWcZ-9">
          <mxGeometry width="50" height="50" relative="1" as="geometry">
            <mxPoint x="505" y="355" as="sourcePoint" />
            <mxPoint x="550" y="350" as="targetPoint" />
          </mxGeometry>
        </mxCell>
        <mxCell id="AEVoycykXjOXG9yBRWcZ-44" value="" style="endArrow=classic;html=1;dashed=1;exitX=1;exitY=0.5;exitDx=0;exitDy=0;" edge="1" parent="1" source="AEVoycykXjOXG9yBRWcZ-10">
          <mxGeometry width="50" height="50" relative="1" as="geometry">
            <mxPoint x="505" y="415" as="sourcePoint" />
            <mxPoint x="550" y="350" as="targetPoint" />
          </mxGeometry>
        </mxCell>
        <mxCell id="AEVoycykXjOXG9yBRWcZ-46" value="" style="endArrow=classic;html=1;dashed=1;exitX=1;exitY=0.5;exitDx=0;exitDy=0;" edge="1" parent="1" source="AEVoycykXjOXG9yBRWcZ-12">
          <mxGeometry width="50" height="50" relative="1" as="geometry">
            <mxPoint x="505" y="535" as="sourcePoint" />
            <mxPoint x="550" y="350" as="targetPoint" />
          </mxGeometry>
        </mxCell>
        <mxCell id="AEVoycykXjOXG9yBRWcZ-52" value="" style="endArrow=classic;html=1;entryX=0;entryY=0.5;entryDx=0;entryDy=0;exitX=1;exitY=0.3333333333333333;exitDx=0;exitDy=0;exitPerimeter=0;" edge="1" parent="1" source="AEVoycykXjOXG9yBRWcZ-17" target="AEVoycykXjOXG9yBRWcZ-6">
          <mxGeometry width="50" height="50" relative="1" as="geometry">
            <mxPoint x="100" y="400" as="sourcePoint" />
            <mxPoint x="385" y="475" as="targetPoint" />
          </mxGeometry>
        </mxCell>
        <mxCell id="AEVoycykXjOXG9yBRWcZ-53" value="" style="endArrow=classic;html=1;entryX=0;entryY=0.5;entryDx=0;entryDy=0;" edge="1" parent="1" target="AEVoycykXjOXG9yBRWcZ-5">
          <mxGeometry width="50" height="50" relative="1" as="geometry">
            <mxPoint x="90" y="390" as="sourcePoint" />
            <mxPoint x="385" y="235" as="targetPoint" />
          </mxGeometry>
        </mxCell>
        <mxCell id="AEVoycykXjOXG9yBRWcZ-54" value="" style="endArrow=classic;html=1;entryX=0;entryY=0.5;entryDx=0;entryDy=0;" edge="1" parent="1" target="AEVoycykXjOXG9yBRWcZ-8">
          <mxGeometry width="50" height="50" relative="1" as="geometry">
            <mxPoint x="90" y="390" as="sourcePoint" />
            <mxPoint x="385" y="175" as="targetPoint" />
          </mxGeometry>
        </mxCell>
        <mxCell id="AEVoycykXjOXG9yBRWcZ-55" value="" style="endArrow=classic;html=1;entryX=0;entryY=0.5;entryDx=0;entryDy=0;" edge="1" parent="1" target="AEVoycykXjOXG9yBRWcZ-9">
          <mxGeometry width="50" height="50" relative="1" as="geometry">
            <mxPoint x="90" y="390" as="sourcePoint" />
            <mxPoint x="385" y="355" as="targetPoint" />
          </mxGeometry>
        </mxCell>
        <mxCell id="AEVoycykXjOXG9yBRWcZ-56" value="" style="endArrow=classic;html=1;exitX=0;exitY=0.3333333333333333;exitDx=0;exitDy=0;exitPerimeter=0;entryX=1;entryY=0.5;entryDx=0;entryDy=0;" edge="1" parent="1" source="AEVoycykXjOXG9yBRWcZ-14" target="AEVoycykXjOXG9yBRWcZ-9">
          <mxGeometry width="50" height="50" relative="1" as="geometry">
            <mxPoint x="770" y="530" as="sourcePoint" />
            <mxPoint x="500" y="540" as="targetPoint" />
          </mxGeometry>
        </mxCell>
        <mxCell id="AEVoycykXjOXG9yBRWcZ-58" value="" style="endArrow=classic;html=1;dashed=1;exitX=1;exitY=0.5;exitDx=0;exitDy=0;" edge="1" parent="1" source="AEVoycykXjOXG9yBRWcZ-16">
          <mxGeometry width="50" height="50" relative="1" as="geometry">
            <mxPoint x="505" y="655" as="sourcePoint" />
            <mxPoint x="610" y="370" as="targetPoint" />
          </mxGeometry>
        </mxCell>
      </root>
    </mxGraphModel>
  </diagram>
</mxfile>
